<svg width="713" height="250" viewBox="0 0 713 250" fill="none" xmlns="http://www.w3.org/2000/svg">
<rect width="713" height="250" fill="white"/>
<path d="M62.375 194V48.5455H167.205V80.3636H101.864V105.364H161.807V137.182H101.864V162.182H166.92V194H62.375ZM229.119 48.5455L252.982 90.875H254.119L278.266 48.5455H322.3L278.835 121.273L324.005 194H278.835L254.119 150.818H252.982L228.266 194H183.38L227.982 121.273L184.8 48.5455H229.119ZM378.817 48.5455V194H339.328V48.5455H378.817ZM393.554 80.3636V48.5455H519.974V80.3636H476.224V194H437.304V80.3636H393.554ZM668.909 121.273C668.909 137.466 665.76 151.126 659.463 162.253C653.166 173.332 644.667 181.737 633.966 187.466C623.265 193.148 611.333 195.989 598.17 195.989C584.913 195.989 572.934 193.124 562.233 187.395C551.58 181.618 543.104 173.19 536.807 162.111C530.557 150.984 527.432 137.371 527.432 121.273C527.432 105.08 530.557 91.4432 536.807 80.3636C543.104 69.2367 551.58 60.8324 562.233 55.1506C572.934 49.4214 584.913 46.5568 598.17 46.5568C611.333 46.5568 623.265 49.4214 633.966 55.1506C644.667 60.8324 653.166 69.2367 659.463 80.3636C665.76 91.4432 668.909 105.08 668.909 121.273ZM628.284 121.273C628.284 112.561 627.124 105.222 624.804 99.2557C622.531 93.2424 619.146 88.697 614.648 85.6193C610.197 82.4943 604.705 80.9318 598.17 80.9318C591.636 80.9318 586.12 82.4943 581.622 85.6193C577.171 88.697 573.786 93.2424 571.466 99.2557C569.193 105.222 568.057 112.561 568.057 121.273C568.057 129.985 569.193 137.348 571.466 143.361C573.786 149.327 577.171 153.872 581.622 156.997C586.12 160.075 591.636 161.614 598.17 161.614C604.705 161.614 610.197 160.075 614.648 156.997C619.146 153.872 622.531 149.327 624.804 143.361C627.124 137.348 628.284 129.985 628.284 121.273Z" fill="#F3F3F3"/>
</svg>
